<?xml version="1.0" encoding="utf-8"?>
<!-- Generator: Adobe Illustrator 23.1.1, SVG Export Plug-In . SVG Version: 6.00 Build 0)  -->
<svg version="1.1" id="레이어_1" xmlns="http://www.w3.org/2000/svg" xmlns:xlink="http://www.w3.org/1999/xlink" x="0px"
     y="0px" viewBox="0 0 24 24" style="enable-background:new 0 0 24 24;" xml:space="preserve">
<style type="text/css">
	.st0{opacity:0.997;}
	.st1{fill:none;}
	.st2{fill:#333333;}
</style>
    <g id="Icon_Close_Rounded" class="st0">
	<rect id="Box" class="st1" width="24" height="24"/>
        <path id="패스_2016" class="st2" d="M17.8,5.3c-0.4-0.4-1-0.4-1.4,0c0,0,0,0,0,0l-4.9,4.9L6.6,5.3c-0.4-0.4-1-0.4-1.4,0
		c-0.4,0.4-0.4,1,0,1.4l4.9,4.9l-4.9,4.9c-0.4,0.4-0.4,1,0,1.4c0.4,0.4,1,0.4,1.4,0l4.9-4.9l4.9,4.9c0.4,0.4,1,0.4,1.4,0
		c0.4-0.4,0.4-1,0-1.4c0,0,0,0,0,0l-4.9-4.9l4.9-4.9C18.2,6.3,18.2,5.7,17.8,5.3C17.8,5.3,17.8,5.3,17.8,5.3z"/>
</g>
</svg>
