<svg width="72" height="16" viewBox="0 0 72 16" fill="none" xmlns="http://www.w3.org/2000/svg">
<path d="M7.19207 1.94606V7.22948H15.2273V8.88056H7.19207V15.705H4V0.294983H17.869V1.94606H7.19207Z" fill="#081837"/>
<path d="M23.0612 1.94606V7.00934H31.0964V8.66041H23.0612V14.0539H33.2979V15.705H19.8691V0.294983H33.2979V1.94606H23.0612Z" fill="#081837"/>
<path d="M38.4899 1.94606V7.00934H46.5251V8.66041H38.4899V14.0539H48.7266V15.705H35.2979V0.294983H48.7266V1.94606H38.4899Z" fill="#081837"/>
<path d="M57.9913 0.294983C59.3121 0.294983 60.5082 0.463759 61.5796 0.801311C62.6656 1.12419 63.5902 1.6085 64.3534 2.25426C65.1312 2.90001 65.733 3.7072 66.1586 4.67583C66.5842 5.62978 66.797 6.73783 66.797 7.99998C66.797 9.26214 66.5842 10.3775 66.1586 11.3462C65.733 12.3001 65.1312 13.1 64.3534 13.7457C63.5902 14.3915 62.6656 14.8831 61.5796 15.2207C60.5082 15.5435 59.3121 15.705 57.9913 15.705H50.7266V0.294983H57.9913ZM53.9186 1.94606V14.0539H57.9913C58.7398 14.0539 59.4369 13.9438 60.0826 13.7237C60.7431 13.4889 61.3154 13.1293 61.7997 12.645C62.2841 12.146 62.6656 11.5149 62.9445 10.7518C63.238 9.98861 63.3848 9.07134 63.3848 7.99998C63.3848 6.92862 63.238 6.01136 62.9445 5.2482C62.6656 4.48504 62.2841 3.8613 61.7997 3.37698C61.3154 2.87799 60.7431 2.51843 60.0826 2.29828C59.4369 2.06346 58.7398 1.94606 57.9913 1.94606H53.9186Z" fill="#081837"/>
</svg>
