<svg width="25" height="26" viewBox="0 0 25 26" fill="none" xmlns="http://www.w3.org/2000/svg">
<path fill-rule="evenodd" clip-rule="evenodd" d="M16.846 11.7612C15.3762 11.9359 14.0058 12.8882 12.9381 13.9459C11.6267 15.245 10.3128 16.0047 9.02442 16.3234C7.73024 16.6436 6.52087 16.5041 5.45224 16.0998C3.35302 15.3055 1.8001 13.497 1 12.1099L2.45558 11.2859C3.14567 12.4823 4.44273 13.94 6.05036 14.5483C6.83514 14.8452 7.69342 14.9409 8.61822 14.7121C9.5488 14.4819 10.6052 13.9083 11.7527 12.7715C12.9203 11.6149 14.6234 10.3527 16.6462 10.1122C18.754 9.86166 20.9769 10.7419 23.0658 13.4025L21.7425 14.4221C19.9196 12.1004 18.2309 11.5966 16.846 11.7612Z" fill="#F2F2F7" fill-opacity="0.9"/>
<path fill-rule="evenodd" clip-rule="evenodd" d="M12.25 22.3125C17.5312 22.3125 21.8125 18.0312 21.8125 12.75C21.8125 7.46878 17.5312 3.1875 12.25 3.1875C6.96878 3.1875 2.6875 7.46878 2.6875 12.75C2.6875 18.0312 6.96878 22.3125 12.25 22.3125ZM12.25 24C18.4632 24 23.5 18.9632 23.5 12.75C23.5 6.5368 18.4632 1.5 12.25 1.5C6.0368 1.5 1 6.5368 1 12.75C1 18.9632 6.0368 24 12.25 24Z" fill="#F2F2F7" fill-opacity="0.9"/>
</svg>
